<svg xmlns="http://www.w3.org/2000/svg" viewBox="0 0 77.11 77.11"><defs><style>.cls-1,.cls-2{fill:#295984;}.cls-1{fill-rule:evenodd;}</style></defs><title>logo</title><g id="圖層_2" data-name="圖層 2"><g id="圖層_1-2" data-name="圖層 1"><path class="cls-1" d="M38.55,0A38.56,38.56,0,1,0,77.11,38.55,38.55,38.55,0,0,0,38.55,0Zm0,75.11A36.56,36.56,0,1,1,75.11,38.55,36.56,36.56,0,0,1,38.55,75.11Z"/><path class="cls-2" d="M37,6.92a.47.47,0,0,0-.46.46v5.51a.47.47,0,0,1-.46.46H33.47a.46.46,0,0,1-.46-.46V7.38a.47.47,0,0,0-.47-.46H31.43a.47.47,0,0,0-.46.46v5.51a.47.47,0,0,1-.46.46H27.89a.47.47,0,0,1-.47-.46V7.38A.46.46,0,0,0,27,6.92H25.85a.47.47,0,0,0-.46.46v7.54a.46.46,0,0,0,.46.46H38.12a.46.46,0,0,0,.47-.46V7.38a.47.47,0,0,0-.47-.46Z"/><path class="cls-2" d="M18.38,23.78a.47.47,0,0,0,.46-.47V22.2a.47.47,0,0,0-.46-.46H7.87a.47.47,0,0,0-.47.46v1.11a.47.47,0,0,0,.47.47H9.39a.45.45,0,0,1,.46.46V36.11a.45.45,0,0,1-.46.46H7.87A.47.47,0,0,0,7.4,37v1.12a.47.47,0,0,0,.47.46H18.38a.47.47,0,0,0,.46-.46V37a.47.47,0,0,0-.46-.46H16.85a.46.46,0,0,1-.46-.46V24.24a.46.46,0,0,1,.46-.46Zm-4,12.33a.46.46,0,0,1-.47.46H12.35a.46.46,0,0,1-.46-.46V24.24a.46.46,0,0,1,.46-.46h1.54a.46.46,0,0,1,.47.46Z"/><path class="cls-2" d="M38.12,26.21H33.47a.46.46,0,0,1-.46-.47v-1.5a.45.45,0,0,1,.46-.46h4.64a.47.47,0,0,0,.46-.47V22.2a.47.47,0,0,0-.46-.46H25.87a.46.46,0,0,0-.46.46v1.11a.46.46,0,0,0,.46.47h4.64a.46.46,0,0,1,.46.46v1.5a.47.47,0,0,1-.46.47H25.85a.46.46,0,0,0-.46.46V38.08a.46.46,0,0,0,.46.46H27a.45.45,0,0,0,.46-.46V28.7a.47.47,0,0,1,.47-.46h.76a.47.47,0,0,1,.46.46v9.38a.46.46,0,0,0,.46.46h1.11a.45.45,0,0,0,.46-.46V28.7a.47.47,0,0,1,.47-.46h.76a.47.47,0,0,1,.46.46v9.38a.46.46,0,0,0,.46.46H34.4a.46.46,0,0,0,.47-.46V28.7a.46.46,0,0,1,.46-.46h.76a.47.47,0,0,1,.46.46v9.38a.46.46,0,0,0,.46.46h1.11a.46.46,0,0,0,.47-.46V26.67A.46.46,0,0,0,38.12,26.21Z"/><circle class="cls-2" cx="13.03" cy="11.16" r="4.59"/></g></g></svg>