<svg xmlns="http://www.w3.org/2000/svg" viewBox="0 0 77 48"><defs><style>.cls-1{fill:#2b50d6;}.cls-2{fill:#e2be27;}</style></defs><title>info</title><g id="圖層_2" data-name="圖層 2"><g id="圖層_2-2" data-name="圖層 2"><rect class="cls-1" width="77" height="48" rx="21.84"/><path class="cls-2" d="M15,15.45a2.52,2.52,0,0,1,5,0,2.52,2.52,0,1,1-5,0ZM15.4,33V19.67a12.85,12.85,0,0,1,2.07-.17,14.13,14.13,0,0,1,2.1.17V33a12.94,12.94,0,0,1-2.1.17A13.43,13.43,0,0,1,15.4,33Z"/><path class="cls-2" d="M35.59,24.9V33a13,13,0,0,1-4.19,0V25.57A2.25,2.25,0,0,0,28.88,23a4.52,4.52,0,0,0-2.24.56V33a13.49,13.49,0,0,1-2.09.17A13,13,0,0,1,22.48,33V21.43a10.42,10.42,0,0,1,6.71-2.2C33.61,19.23,35.59,21.63,35.59,24.9Z"/><path class="cls-2" d="M48.6,15.28A4.29,4.29,0,0,1,47,18.19a3.06,3.06,0,0,0-1.7-.48c-1.09,0-1.74.51-1.74,1.82V20h2.91a8.52,8.52,0,0,1,.2,1.71,8.25,8.25,0,0,1-.2,1.7H43.53V33a9.86,9.86,0,0,1-2,.17A11,11,0,0,1,39.37,33V23.34H37.63a7.47,7.47,0,0,1-.17-1.65A8.63,8.63,0,0,1,37.63,20h1.74c.11-3.77,2.43-5.65,5.62-5.65A6.53,6.53,0,0,1,48.6,15.28Z"/><path class="cls-2" d="M47.47,26.33c0-4.28,3.08-7.1,7.31-7.1S62,22,62,26.33s-3.08,7.08-7.3,7.08S47.47,30.72,47.47,26.33Zm10.35,0c0-2.18-1.12-3.61-3.07-3.61s-3.11,1.43-3.11,3.61,1.15,3.61,3.11,3.61S57.82,28.48,57.82,26.33Z"/></g></g></svg>